<?xml version="1.0" encoding="UTF-8"?>
<svg width="8px" height="15px" viewBox="0 0 8 15" version="1.1" xmlns="http://www.w3.org/2000/svg" xmlns:xlink="http://www.w3.org/1999/xlink">
    <!-- Generator: Sketch 55.1 (78136) - https://sketchapp.com -->
    <title>Path</title>
    <desc>Created with Sketch.</desc>
    <g id="Page-1" stroke="none" stroke-width="1" fill="none" fill-rule="evenodd">
        <g id="О-компании" transform="translate(-949.000000, -25.000000)" fill="#D0021B" fill-rule="nonzero">
            <g id="Group-28">
                <g id="За">
                    <g id="Group-26">
                        <g id="Group-24">
                            <g id="Group-23">
                                <g id="Group-22">
                                    <g id="Group-10">
                                        <g id="Group-6">
                                            <g id="Group-5">
                                                <g id="Group-15" transform="translate(150.000000, 21.000000)">
                                                    <g id="left-arrow" transform="translate(786.500000, 11.000000) scale(-1, 1) translate(-786.500000, -11.000000) translate(693.000000, 0.000000)">
                                                        <path d="M75.6882942,11.3085149 L80.782563,6.07092141 C80.9228342,5.92705149 81,5.73469377 81,5.52958808 C81,5.32436856 80.9228342,5.13212466 80.782563,4.9880271 L80.3361752,4.52932791 C80.1961254,4.38500271 80.0089126,4.30555556 79.8094109,4.30555556 C79.6099092,4.30555556 79.4229178,4.38500271 79.2827573,4.52932791 L73.2172185,10.7651328 C73.0765045,10.9096856 72.9994494,11.1028401 73,11.3081734 C72.9994494,11.5144173 73.0763937,11.7073442 73.2172185,11.8520108 L79.2771111,18.0817832 C79.4172716,18.2261084 79.6042629,18.3055556 79.8038753,18.3055556 C80.0033771,18.3055556 80.1903684,18.2261084 80.3306396,18.0817832 L80.7769168,17.623084 C81.0673125,17.3245312 81.0673125,16.8385149 80.7769168,16.5400759 L75.6882942,11.3085149 Z" id="Path"></path>
                                                    </g>
                                                </g>
                                            </g>
                                        </g>
                                    </g>
                                </g>
                            </g>
                        </g>
                    </g>
                </g>
            </g>
        </g>
    </g>
</svg>