<?xml version="1.0" encoding="UTF-8"?>
<svg width="43px" height="45px" viewBox="0 0 43 45" version="1.1" xmlns="http://www.w3.org/2000/svg" xmlns:xlink="http://www.w3.org/1999/xlink">
    <!-- Generator: Sketch 55.2 (78181) - https://sketchapp.com -->
    <title>call</title>
    <desc>Created with Sketch.</desc>
    <g id="Page-1" stroke="none" stroke-width="1" fill="none" fill-rule="evenodd">
        <g id="Group" transform="translate(-27.000000, -10.000000)" fill="#FF0000" fill-rule="nonzero">
            <g id="call" transform="translate(21.000000, 6.000000)">
                <g transform="translate(26.710922, 25.713339) rotate(13.000000) translate(-26.710922, -25.713339) translate(4.210922, 5.213339)" id="Path">
                    <path d="M30.93624,21.6098488 C30.8482914,21.7341537 30.8482914,21.8584586 30.8043171,22.0241984 C30.7603428,22.5628529 31.2000857,23.0600724 31.7717514,23.1015074 C32.3434171,23.1429423 32.8711085,22.7285927 32.9150828,22.1899382 C32.9150828,22.0656334 32.9150828,21.9413285 32.9590571,21.7341537 C32.9590571,21.5269789 32.9590571,21.402674 32.9590571,21.2783691 C32.9590571,20.0767553 32.7391856,18.9165765 32.3434171,17.7978325 C31.8157256,16.3476089 30.8922657,15.0631252 29.7929086,13.9858162 C28.4297057,12.7013325 26.7586829,11.7897634 24.8677886,11.2925439 C23.9883029,11.0853691 23.0208687,10.9610642 22.0974087,10.9610642 C21.7895887,10.9610642 21.4817687,10.9610642 21.1299744,11.0024991 C20.8221545,11.0439341 20.5143344,11.0853691 20.2065145,11.126804 C19.6348487,11.2096739 19.2390802,11.7483284 19.371003,12.2455479 C19.4589516,12.7842024 20.0306173,13.1571171 20.5583087,13.0328122 C20.8221545,12.9913772 21.0420259,12.9499423 21.3058716,12.9499423 C21.3498459,12.9499423 21.3938201,12.9499423 21.4377944,12.9499423 C21.6576659,12.9499423 21.8775373,12.9085073 22.0974087,12.9085073 C24.5159944,12.9085073 26.7586829,13.8200764 28.3417571,15.3531699 C29.9248314,16.8448284 30.8922657,18.8751415 30.93624,21.1540643 L30.93624,21.2369342 C30.93624,21.402674 30.93624,21.5269789 30.93624,21.6098488 Z"></path>
                    <path d="M36.5931512,22.0605611 C36.5503366,22.5810823 36.9784826,23.0615634 37.5350726,23.1016035 C38.0916625,23.1416436 38.6054378,22.7412427 38.6482524,22.2207215 C38.691067,21.7802804 38.691067,21.3398394 38.691067,20.8993983 C38.691067,20.0185162 38.6054378,19.1776742 38.476994,18.3368322 C37.920404,15.1336246 36.2506343,12.2507378 33.8958308,10.0485325 C31.1985105,7.52600651 27.6020833,5.88436262 23.6203247,5.60408192 C23.1921787,5.56404183 22.721218,5.56404183 22.2930718,5.56404183 C21.8221112,5.56404183 21.3511505,5.56404183 20.8801898,5.60408192 C20.4092291,5.64412202 19.9382684,5.68416211 19.4673077,5.7642423 C18.9107178,5.84432248 18.5253863,6.36484373 18.6538301,6.84532489 C18.7394593,7.36584613 19.2960493,7.72620697 19.8098246,7.60608669 C20.1095268,7.5660466 20.3664145,7.52600651 20.6661167,7.48596641 C20.7945605,7.48596641 20.9230044,7.44592632 21.0514482,7.44592632 C21.4795943,7.40588623 21.9077404,7.40588623 22.2930718,7.40588623 C23.7487686,7.40588623 25.1188361,7.60608669 26.4460889,7.96644757 C28.7580778,8.60708905 30.813179,9.76825183 32.4829487,11.3298155 C33.8530162,12.6110986 34.9661961,14.1726623 35.6940444,15.8543463 C36.3362635,17.3758699 36.721595,19.057554 36.721595,20.8193181 C36.721595,20.9394384 36.721595,21.0995988 36.721595,21.2197191 C36.6359658,21.5400398 36.5931512,21.7802804 36.5931512,22.0605611 Z"></path>
                    <path d="M37.8600453,6.33119491 C33.7581506,2.50376573 28.1450314,0.167019502 21.9274225,0.167019502 C21.279755,0.167019502 20.6320873,0.20730823 19.9844198,0.247596958 C19.3367522,0.287885686 18.6890846,0.368463142 18.041417,0.489329325 C17.4801051,0.569906782 17.0915045,1.09366025 17.221038,1.57712499 C17.3073937,2.10087845 17.8687056,2.46347701 18.3868397,2.34261082 C18.6890846,2.30232209 18.9481516,2.26203337 19.2503965,2.22174464 C19.5526413,2.18145591 19.8548862,2.14116718 20.1571311,2.14116718 C20.7616209,2.10087845 21.3229328,2.06058973 21.9274225,2.06058973 C27.5405417,2.06058973 32.6355267,4.1958923 36.3488209,7.62043419 C40.0189373,11.0449761 42.307363,15.799046 42.307363,21.0768694 C42.307363,21.3588905 42.307363,21.6812003 42.307363,21.9632214 C42.307363,22.2049538 42.264185,22.4466862 42.264185,22.7287073 C42.221007,23.2524608 42.6527856,23.7359255 43.2140973,23.7762142 C43.7754095,23.8165029 44.2935432,23.4136157 44.3367212,22.8898622 C44.3798992,22.2855313 44.4230767,21.6812003 44.4230767,21.1171581 C44.4230767,15.35587 41.9187624,10.1183354 37.8600453,6.33119491 Z"></path>
                    <path d="M42.6793067,30.7453568 L35.0640567,26.9063859 C32.52564,25.6132589 32.439592,26.4618735 29.7721033,29.128948 C29.1267431,29.7755115 27.9220708,31.4727407 26.5022784,31.149459 C23.5336216,30.4624852 17.9835241,26.3810531 16.1765156,24.522183 C15.3160354,23.6331582 11.6159704,19.3900852 11.5729464,18.0161378 C11.4868984,15.9148064 16.3916357,14.8641407 14.7997473,10.863529 L11.4008504,3.71092026 C8.2170735,-3.15881697 -0.688896908,7.83276258 0.0425112894,12.9648604 C1.9355678,25.6132589 25.5557501,46.0608297 38.7210976,39.3123231 C41.6467303,37.7767348 45.6049394,32.4021757 42.6793067,30.7453568 Z"></path>
                </g>
            </g>
        </g>
    </g>
</svg>