<?xml version="1.0" encoding="UTF-8"?>
<svg width="60px" height="60px" viewBox="0 0 60 60" version="1.1" xmlns="http://www.w3.org/2000/svg" xmlns:xlink="http://www.w3.org/1999/xlink">
    <!-- Generator: Sketch 55.1 (78136) - https://sketchapp.com -->
    <title>Group 3</title>
    <desc>Created with Sketch.</desc>
    <g id="Page-1" stroke="none" stroke-width="1" fill="none" fill-rule="evenodd">
        <g id="О-компании" transform="translate(-1230.000000, 0.000000)">
            <g id="Group-28">
                <g id="За">
                    <g id="Group-26">
                        <g id="Group-24">
                            <g id="Group-23">
                                <g id="Group-22">
                                    <g id="Group-10">
                                        <g id="Group-6">
                                            <g id="Group-5">
                                                <g id="Group-3" transform="translate(1230.000000, 0.000000)">
                                                    <rect id="Rectangle" fill="#D0021B" x="0" y="0" width="60" height="60"></rect>
                                                    <circle id="Oval" fill="#FFFFFF" cx="30" cy="30" r="18"></circle>
                                                    <g id="call" transform="translate(30.018508, 30.337560) rotate(13.000000) translate(-30.018508, -30.337560) translate(16.518508, 17.337560)" fill="#D0021B" fill-rule="nonzero">
                                                        <path d="M18.2805054,13.5620431 C18.2285358,13.6400551 18.2285358,13.7180671 18.202551,13.8220831 C18.1765662,14.1601353 18.4364143,14.4721834 18.7742167,14.4981874 C19.1120192,14.5241914 19.4238368,14.2641513 19.4498216,13.9260992 C19.4498216,13.8480872 19.4498216,13.7700751 19.4758065,13.6400551 C19.4758065,13.510035 19.4758065,13.432023 19.4758065,13.354011 C19.4758065,12.5998947 19.3458824,11.8717825 19.1120192,11.1696742 C18.8002015,10.2595339 18.2545206,9.4534096 17.6049005,8.77730536 C16.7993716,7.97118107 15.811949,7.39909287 14.6946024,7.08704476 C14.1749063,6.95702471 13.6032406,6.87901268 13.0575597,6.87901268 C12.8756661,6.87901268 12.6937724,6.87901268 12.485894,6.90501669 C12.3040004,6.9310207 12.1221067,6.95702471 11.9402131,6.98302872 C11.6024106,7.03503674 11.3685474,7.37308886 11.4465018,7.68513697 C11.4984714,8.02318909 11.8362739,8.25722517 12.1480915,8.17921315 C12.3040004,8.15320914 12.4339244,8.12720513 12.5898332,8.12720513 C12.615818,8.12720513 12.6418028,8.12720513 12.6677876,8.12720513 C12.7977116,8.12720513 12.9276357,8.10120112 13.0575597,8.10120112 C14.4867239,8.10120112 15.811949,8.67328932 16.747402,9.63543766 C17.6828549,10.571582 18.2545206,11.8457784 18.2805054,13.275999 L18.2805054,13.328007 C18.2805054,13.432023 18.2805054,13.510035 18.2805054,13.5620431 Z" id="Path"></path>
                                                        <path d="M21.6232257,13.8449038 C21.5979262,14.1715758 21.8509216,14.4731191 22.1798156,14.4982477 C22.5087096,14.5233764 22.8123041,14.2720902 22.8376037,13.9454183 C22.8629032,13.6690036 22.8629032,13.3925888 22.8629032,13.1161741 C22.8629032,12.5633447 22.8123041,12.0356438 22.7364055,11.507943 C22.4075115,9.49765406 21.4208294,7.68839403 20.0293546,6.3063204 C18.4354835,4.72321787 16.310322,3.6929448 13.9574646,3.51704452 C13.7044692,3.49191591 13.4261742,3.49191591 13.1731788,3.49191591 C12.8948839,3.49191591 12.6165889,3.49191591 12.338294,3.51704452 C12.059999,3.54217313 11.781704,3.56730174 11.5034091,3.61755897 C11.1745151,3.66781619 10.9468192,3.99448814 11.0227178,4.29603148 C11.0733169,4.62270343 11.4022109,4.84886093 11.7058054,4.7734751 C11.8829022,4.74834648 12.0346995,4.72321787 12.2117963,4.69808926 C12.2876949,4.69808926 12.3635935,4.67296065 12.4394921,4.67296065 C12.6924875,4.64783204 12.945483,4.64783204 13.1731788,4.64783204 C14.0333632,4.64783204 14.8429486,4.7734751 15.6272344,4.9996326 C16.9934096,5.40169038 18.2077876,6.13042012 19.1944697,7.11043597 C20.004055,7.91455153 20.6618431,8.89456738 21.0919353,9.94996907 C21.4714284,10.9048563 21.6991243,11.960258 21.6991243,13.0659169 C21.6991243,13.1413027 21.6991243,13.2418172 21.6991243,13.317203 C21.6485252,13.5182319 21.6232257,13.6690036 21.6232257,13.8449038 Z" id="Path"></path>
                                                        <path d="M22.371845,3.9733706 C19.9479981,1.57132884 16.6311549,0.104819136 12.9571133,0.104819136 C12.5744006,0.104819136 12.191688,0.130103786 11.8089753,0.155388436 C11.4262626,0.180673086 11.04355,0.231242386 10.6608373,0.307096336 C10.329153,0.357665636 10.0995254,0.686366088 10.1760679,0.989781889 C10.2270963,1.31848234 10.5587806,1.54604419 10.8649507,1.47019024 C11.04355,1.44490559 11.196635,1.41962094 11.3752343,1.39433629 C11.5538335,1.36905164 11.7324328,1.34376699 11.911032,1.34376699 C12.2682305,1.31848234 12.5999148,1.29319769 12.9571133,1.29319769 C16.2739564,1.29319769 19.2846294,2.63328414 21.4788487,4.7824794 C23.6475539,6.93167466 24.9998053,9.91526337 24.9998053,13.2275525 C24.9998053,13.4045451 24.9998053,13.6068223 24.9998053,13.7838148 C24.9998053,13.9355227 24.9742911,14.0872306 24.9742911,14.2642232 C24.9487769,14.5929236 25.2039187,14.8963394 25.535603,14.9216241 C25.8672873,14.9469087 26.1734575,14.6940622 26.1989716,14.3653618 C26.2244858,13.986092 26.25,13.6068223 26.25,13.2528372 C26.25,9.63713222 24.7701777,6.35012771 22.371845,3.9733706 Z" id="Path"></path>
                                                        <path d="M25.2195903,19.2953618 L20.7196699,16.8860767 C19.2196964,16.074528 19.1688498,16.6071068 17.5926065,18.280926 C17.2112573,18.6867003 16.4994055,19.7518579 15.6604372,19.5489708 C13.9062309,19.1178355 10.6266279,16.556385 9.55885014,15.3897838 C9.05038455,14.8318441 6.86398251,12.16895 6.83855923,11.3066796 C6.78771267,9.98791297 9.68596654,9.32852967 8.74530519,6.81780097 L6.73686611,2.32892237 C4.85554342,-1.98242996 -0.407075445,4.91573376 0.0251203073,8.13656756 C1.14374461,16.074528 15.1011251,28.9071414 22.8806486,24.6718718 C24.6094316,23.7081577 26.9483733,20.3351586 25.2195903,19.2953618 Z" id="Path"></path>
                                                    </g>
                                                </g>
                                            </g>
                                        </g>
                                    </g>
                                </g>
                            </g>
                        </g>
                    </g>
                </g>
            </g>
        </g>
    </g>
</svg>