<svg id="Слой_1" data-name="Слой 1" xmlns="http://www.w3.org/2000/svg" viewBox="0 0 248 123.8"><defs><style>.cls-1{fill:#808d97;}.cls-2{fill:#d41f00;}.cls-3{fill:red;}.cls-4{fill:#fff;}</style></defs><title>logo</title><g id="Page-1"><g id="Главная"><g id="Group-21"><path class="cls-1" d="M6.46,119H4.66V106.3H.2v-1.58H10.9v1.58H6.46Zm15-5.38a5.93,5.93,0,0,1-1.33,4.1,4.71,4.71,0,0,1-3.67,1.48,4.92,4.92,0,0,1-2.58-.68,4.5,4.5,0,0,1-1.73-2,6.7,6.7,0,0,1-.61-2.95,5.92,5.92,0,0,1,1.31-4.08,4.69,4.69,0,0,1,3.67-1.46,4.6,4.6,0,0,1,3.6,1.49A5.84,5.84,0,0,1,21.46,113.62Zm-8.1,0a5,5,0,0,0,.8,3.07,2.75,2.75,0,0,0,2.34,1,2.76,2.76,0,0,0,2.34-1,5,5,0,0,0,.8-3.07,4.82,4.82,0,0,0-.81-3,2.81,2.81,0,0,0-2.36-1Q13.37,109.56,13.36,113.62Zm16,5.58A3.88,3.88,0,0,1,26,117.64h-.12l0,.4c0,.51.08,1,.08,1.36v4.4H24.24V108.28h1.44l.24,1.46H26a3.75,3.75,0,0,1,1.44-1.27,4.39,4.39,0,0,1,1.9-.39,3.93,3.93,0,0,1,3.24,1.45,6.42,6.42,0,0,1,1.16,4.09,6.49,6.49,0,0,1-1.16,4.1A3.93,3.93,0,0,1,29.32,119.2Zm-.3-9.64a2.76,2.76,0,0,0-2.3.9,4.59,4.59,0,0,0-.72,2.82v.34a5.38,5.38,0,0,0,.72,3.15,2.71,2.71,0,0,0,2.34,1,2.43,2.43,0,0,0,2.11-1.09,5.35,5.35,0,0,0,.75-3.05,5.07,5.07,0,0,0-.75-3A2.49,2.49,0,0,0,29,109.56Zm14.07.2H38.3V119H36.54V108.28h6.55Zm11.33,3.86a5.93,5.93,0,0,1-1.32,4.1,4.72,4.72,0,0,1-3.68,1.48,4.86,4.86,0,0,1-2.57-.68,4.5,4.5,0,0,1-1.73-2,6.7,6.7,0,0,1-.61-2.95,5.92,5.92,0,0,1,1.31-4.08,4.69,4.69,0,0,1,3.67-1.46,4.6,4.6,0,0,1,3.6,1.49A5.83,5.83,0,0,1,54.42,113.62Zm-8.09,0a5,5,0,0,0,.79,3.07,3.14,3.14,0,0,0,4.69,0,5,5,0,0,0,.8-3.07,4.82,4.82,0,0,0-.81-3,2.83,2.83,0,0,0-2.36-1Q46.33,109.56,46.33,113.62ZM66,111a2.05,2.05,0,0,1-.59,1.58,3.28,3.28,0,0,1-1.67.74v.08a3.5,3.5,0,0,1,2,.81,2.26,2.26,0,0,1,.62,1.67,2.72,2.72,0,0,1-1.12,2.33A5.45,5.45,0,0,1,62,119H57.21V108.28H62Q66,108.28,66,111Zm-1.42,4.78a1.29,1.29,0,0,0-.7-1.26,4.67,4.67,0,0,0-2.06-.36H59v3.44h2.92C63.7,117.58,64.61,117,64.61,115.76Zm-.3-4.62a1.16,1.16,0,0,0-.58-1.08,3.83,3.83,0,0,0-1.76-.32H59v2.94h2.69a4.43,4.43,0,0,0,2.05-.35A1.29,1.29,0,0,0,64.31,111.14Zm6.18,1.54h2.78a5.17,5.17,0,0,1,3.09.76,2.7,2.7,0,0,1,1,2.28,2.92,2.92,0,0,1-1,2.45,5,5,0,0,1-3.11.83H68.73V108.28h1.76Zm5.13,3.14a1.45,1.45,0,0,0-.59-1.28,3.6,3.6,0,0,0-2-.4H70.49v3.44H73C74.75,117.58,75.62,117,75.62,115.82ZM80.89,119H79.13V108.28h1.76ZM86,108.28v6.54l-.08,1.89,0,.55,5.74-9h2.16V119H92.09v-6.32l0-1.36,0-1.28-5.71,9H84.29V108.28Zm3-1.4a4.22,4.22,0,0,1-2.72-.71,3.16,3.16,0,0,1-1-2.33h1.64a2.11,2.11,0,0,0,.54,1.42,2.28,2.28,0,0,0,1.54.4,2.17,2.17,0,0,0,1.49-.43,2.07,2.07,0,0,0,.59-1.39h1.66a3.12,3.12,0,0,1-1.06,2.31A4.28,4.28,0,0,1,89,106.88Zm22.9,15.84h-1.7V119h-7.46v3.72H101v-5.2h.85a14.32,14.32,0,0,0,2-4.19,18.39,18.39,0,0,0,.76-5h5.63v9.24h1.57Zm-3.27-5.2v-7.86h-2.38a19.1,19.1,0,0,1-.83,4.34,12,12,0,0,1-1.69,3.52Zm14.68-3.9a5.88,5.88,0,0,1-1.33,4.1,4.7,4.7,0,0,1-3.67,1.48,4.92,4.92,0,0,1-2.58-.68,4.57,4.57,0,0,1-1.73-2,6.85,6.85,0,0,1-.6-2.95,5.92,5.92,0,0,1,1.31-4.08,4.67,4.67,0,0,1,3.67-1.46,4.6,4.6,0,0,1,3.6,1.49A5.83,5.83,0,0,1,123.28,113.62Zm-8.09,0a5,5,0,0,0,.79,3.07,3.13,3.13,0,0,0,4.68,0,5,5,0,0,0,.8-3.07,4.82,4.82,0,0,0-.8-3,2.83,2.83,0,0,0-2.36-1C116.22,109.56,115.19,110.91,115.19,113.62Zm16.58,3.7a20.34,20.34,0,0,1,.74-2.2l2.79-6.84h2.27V119H136v-8.84c-.23.71-.5,1.46-.8,2.24l-2.68,6.6h-1.43l-2.67-6.64c-.13-.31-.26-.65-.39-1s-.25-.76-.37-1.17V119h-1.59V108.28h2.2l2.71,6.58C131.21,115.47,131.47,116.29,131.77,117.32Zm13.51-3.72,3.36-4,1.26.72-2.8,3.42,2.8,3.42-1.26.74-3.36-4Zm4,0,3.41-4,1.24.72-2.81,3.42,2.81,3.42-1.24.74-3.41-4Zm16.7,1.22a3.82,3.82,0,0,1-1.27,3.14,6.09,6.09,0,0,1-3.89,1H156.6V104.72h8.48v1.58H158.4v4.46h2.12a7,7,0,0,1,4.07,1A3.56,3.56,0,0,1,165.94,114.82Zm-7.54,2.64h2.2a4.51,4.51,0,0,0,2.66-.62,2.37,2.37,0,0,0,.82-2,2.11,2.11,0,0,0-.86-1.93,5.51,5.51,0,0,0-2.92-.57h-1.9Zm14.82,1.74a4.93,4.93,0,0,1-3.78-1.46,5.63,5.63,0,0,1-1.37-4,6.17,6.17,0,0,1,1.28-4.11,4.26,4.26,0,0,1,3.45-1.53,4.2,4.2,0,0,1,3.23,1.31,5,5,0,0,1,1.2,3.53V114h-7.35a4.11,4.11,0,0,0,.93,2.77,3.21,3.21,0,0,0,2.49,1,8.51,8.51,0,0,0,1.63-.15,9.39,9.39,0,0,0,1.81-.59v1.54a8.48,8.48,0,0,1-1.67.54A9.88,9.88,0,0,1,173.22,119.2Zm-.44-9.68a2.55,2.55,0,0,0-2,.81,3.78,3.78,0,0,0-.87,2.25h5.46a3.45,3.45,0,0,0-.69-2.28A2.39,2.39,0,0,0,172.78,109.52ZM185,119.2a3.88,3.88,0,0,1-3.32-1.56h-.12l0,.4c0,.51.08,1,.08,1.36v4.4h-1.76V108.28h1.45l.23,1.46h.08a3.9,3.9,0,0,1,1.44-1.27,4.39,4.39,0,0,1,1.9-.39,4,4,0,0,1,3.25,1.45,7.84,7.84,0,0,1,0,8.19A3.92,3.92,0,0,1,185,119.2Zm-.29-9.64a2.75,2.75,0,0,0-2.3.9,4.52,4.52,0,0,0-.73,2.82v.34a5.38,5.38,0,0,0,.72,3.15,2.72,2.72,0,0,0,2.35,1,2.41,2.41,0,0,0,2.1-1.09,5.35,5.35,0,0,0,.76-3.05,5.07,5.07,0,0,0-.76-3A2.47,2.47,0,0,0,184.73,109.56Zm5.74-1.28h1.88l2.32,6.1a19.48,19.48,0,0,1,.9,2.92h.07c.06-.24.2-.69.4-1.35s.39-1.19.53-1.59l2.18-6.08h1.89L196,120.48a6,6,0,0,1-1.61,2.55,3.41,3.41,0,0,1-2.29.77,6.6,6.6,0,0,1-1.46-.16v-1.4a5,5,0,0,0,1.18.12,2.26,2.26,0,0,0,1.42-.46,3.3,3.3,0,0,0,1-1.44l.56-1.42ZM210,113.86l-3.41,4-1.24-.74,2.8-3.42-2.8-3.42,1.24-.72,3.41,4Zm-4,0-3.37,4-1.24-.74,2.8-3.42-2.8-3.42,1.24-.72,3.37,4Z" transform="translate(0 0)"/><g id="Безымянный-1"><path id="Path" class="cls-2" d="M240,16H120.82a8.21,8.21,0,0,1-.88,3.76A8.8,8.8,0,0,1,112,24.55h0V28H248V23.79h0a7.65,7.65,0,0,0-2.35-5.51A8.2,8.2,0,0,0,240,16Z" transform="translate(0 0)"/><path class="cls-3" d="M64.12,19.76A8.07,8.07,0,0,1,63.26,16H8a7.9,7.9,0,0,0-8,7.79H0V28H72V24.55a8.76,8.76,0,0,1-7.88-4.79Z" transform="translate(0 0)"/><path id="Shape" class="cls-4" d="M177.11,35h-51V58.76h-48c-.93,0-2.56-.46-2.56-2.15v-3.4H63V86.6C63,91.27,65.66,95,70.77,95H121V76.73H108.7v5.81H78a2.41,2.41,0,0,1-2.54-2.21V73.51c0-1.64,1.61-2.15,2.54-2.15h48.2V95h12.74V71.45h38c4.86,0,8.11-3.22,8.11-6.52V42.34C185,39.12,181.75,35,177.11,35Zm-4.86,21.31a2.6,2.6,0,0,1-2.31,2.45h-31V47.51H169.3c1.15,0,3,1.07,3,2.74Z" transform="translate(0 0)"/><path class="cls-4" d="M7.77,35C2.69,35,0,38.73,0,43.42V86.6C0,91.27,2.69,95,7.77,95H50.16c5.09,0,7.73-3.72,7.73-8.39V67.15c0-4.64-2.64-8.38-7.73-8.38h-35a2.3,2.3,0,0,1-2.53-2.15c0-1.69-.23-5.59-.23-7a2.43,2.43,0,0,1,2.53-2.16H108.7v5.81H121V35Zm7.15,36.45H45.6V82.53H14.92a2.43,2.43,0,0,1-2.54-2.22v-6.8C12.39,71.92,14,71.46,14.92,71.46Z" transform="translate(0 0)"/><path class="cls-4" d="M240.26,35h-4.63V56.43c0,1.62-1.62,2.15-2.54,2.15H202.38V35H190.05V62.82c0,4.67,2.66,8.4,7.75,8.4h35.06c.91,0,2.55.47,2.55,2.15s.22,5.57.22,7a2.42,2.42,0,0,1-2.54,2.22H156.33V76.73H144v9.88c0,4.67,2.66,8.39,7.74,8.39h88.52c5.08,0,7.74-3.72,7.74-8.39V35Z" transform="translate(0 0)"/><path class="cls-3" d="M114.71,10.36,94.8.64a6.19,6.19,0,0,0-5.47,0L69.46,10.36h0a6.13,6.13,0,1,0,5.39,11h0L92,13l17.2,8.39h0a6.13,6.13,0,0,0,5.41-11Z" transform="translate(0 0)"/></g></g></g></g></svg>