<?xml version="1.0" encoding="UTF-8"?>
<svg width="248px" height="123px" viewBox="0 0 248 123" version="1.1" xmlns="http://www.w3.org/2000/svg" xmlns:xlink="http://www.w3.org/1999/xlink">
    <!-- Generator: Sketch 55.2 (78181) - https://sketchapp.com -->
    <title>Group</title>
    <desc>Created with Sketch.</desc>
    <g id="Page-1" stroke="none" stroke-width="1" fill="none" fill-rule="evenodd">
        <g id="Group" fill-rule="nonzero">
            <g id="logo-(1)">
                <g id="Безымянный-1">
                    <path d="M240,16 L120.82,16 C120.829786,17.3054734 120.528109,18.5944595 119.94,19.76 C118.41749,22.7347204 115.341462,24.5904098 112,24.55 L112,24.55 L112,28 L248,28 L248,23.79 L248,23.79 C247.998214,21.7102523 247.149748,19.7208707 245.65,18.28 C244.129385,16.8225701 242.106261,16.0061588 240,16 Z" id="Path" fill="#FF0000"></path>
                    <path d="M64.12,19.76 C63.5336259,18.5946052 63.238531,17.3044228 63.26,16 L8,16 C3.6406637,15.9443963 0.0603499565,19.4307268 0,23.79 L0,23.79 L0,28 L72,28 L72,24.55 C68.6774813,24.5769662 65.6256935,22.7218819 64.12,19.76 Z" id="Path" fill="#FF0000"></path>
                    <path d="M177.11,35 L126.11,35 L126.11,58.76 L78.11,58.76 C77.18,58.76 75.55,58.3 75.55,56.61 L75.55,53.21 L63,53.21 L63,86.6 C63,91.27 65.66,95 70.77,95 L121,95 L121,76.73 L108.7,76.73 L108.7,82.54 L78,82.54 C76.6938124,82.6149101 75.5664291,81.6339979 75.46,80.33 L75.46,73.51 C75.46,71.87 77.07,71.36 78,71.36 L126.2,71.36 L126.2,95 L138.94,95 L138.94,71.45 L176.94,71.45 C181.8,71.45 185.05,68.23 185.05,64.93 L185.05,42.34 C185,39.12 181.75,35 177.11,35 Z M172.25,56.31 C172.184259,57.5823274 171.206264,58.6195945 169.94,58.76 L138.94,58.76 L138.94,47.51 L169.3,47.51 C170.45,47.51 172.3,48.58 172.3,50.25 L172.25,56.31 Z" id="Shape" fill="#FFFFFF"></path>
                    <path d="M7.77,35 C2.69,35 0,38.73 0,43.42 L0,86.6 C0,91.27 2.69,95 7.77,95 L50.16,95 C55.25,95 57.89,91.28 57.89,86.61 L57.89,67.15 C57.89,62.51 55.25,58.77 50.16,58.77 L15.16,58.77 C14.5365348,58.8338021 13.9140331,58.640421 13.436463,58.2345808 C12.9588928,57.8287406 12.667617,57.2455913 12.63,56.62 C12.63,54.93 12.4,51.03 12.4,49.62 C12.5410878,48.345116 13.6487637,47.3994322 14.93,47.46 L108.7,47.46 L108.7,53.27 L121,53.27 L121,35 L7.77,35 Z M14.92,71.45 L45.6,71.45 L45.6,82.53 L14.92,82.53 C13.6139281,82.5939508 12.4914409,81.6128793 12.38,80.31 L12.38,73.51 C12.39,71.92 14,71.46 14.92,71.46 L14.92,71.45 Z" id="Shape" fill="#FFFFFF"></path>
                    <path d="M240.26,35 L235.63,35 L235.63,56.43 C235.63,58.05 234.01,58.58 233.09,58.58 L202.38,58.58 L202.38,35 L190.05,35 L190.05,62.82 C190.05,67.49 192.71,71.22 197.8,71.22 L232.86,71.22 C233.77,71.22 235.41,71.69 235.41,73.37 C235.41,75.05 235.63,78.94 235.63,80.37 C235.523589,81.6754214 234.397918,82.6592762 233.09,82.59 L156.33,82.59 L156.33,76.73 L144,76.73 L144,86.61 C144,91.28 146.66,95 151.74,95 L240.26,95 C245.34,95 248,91.28 248,86.61 L248,35 L240.26,35 Z" id="Path" fill="#FFFFFF"></path>
                    <path d="M114.71,10.36 L94.8,0.64 C93.0755726,-0.20932541 91.0544274,-0.20932541 89.33,0.64 L69.46,10.36 L69.46,10.36 C67.4000893,11.2660359 66.0022263,13.2279084 65.8185086,15.4707594 C65.6347909,17.7136105 66.6947588,19.8768102 68.5797689,21.1059846 C70.4647791,22.335159 72.8717391,22.4326682 74.85,21.36 L74.85,21.36 L92,13 L109.2,21.39 L109.2,21.39 C112.226748,22.8181487 115.839523,21.5546974 117.316551,18.5514992 C118.793578,15.548301 117.58886,11.915518 114.61,10.39 L114.71,10.36 Z" id="Path" fill="#FF0000"></path>
                </g>
            </g>
            <path d="M5.13846368,119.048024 L5.13846368,105.811406 L0,105.811406 L0,104.24062 L12.3323128,104.24062 L12.3323128,105.811406 L7.19384915,105.811406 L7.19384915,119.048024 L5.13846368,119.048024 Z M18.5865572,119.298149 C17.0662168,119.298149 15.8525728,118.782897 14.9455886,117.752376 C14.0386045,116.721856 13.5851192,115.342847 13.5851192,113.615308 C13.5851192,111.867758 14.0402357,110.485414 14.9504824,109.468234 C15.8607291,108.451054 17.0955793,107.942471 18.65507,107.942471 C20.2145608,107.942471 21.449411,108.451054 22.3596577,109.468234 C23.2699044,110.485414 23.7250209,111.861089 23.7250209,113.595298 C23.7250209,115.369527 23.2682731,116.763543 22.3547639,117.777389 C21.4412547,118.791234 20.1851983,119.298149 18.5865572,119.298149 Z M18.6159198,117.817409 C20.6582655,117.817409 21.679423,116.410052 21.679423,113.595298 C21.679423,110.813893 20.6713154,109.423212 18.65507,109.423212 C16.6453498,109.423212 15.6405047,110.820563 15.6405047,113.615308 C15.6405047,116.416722 16.6322998,117.817409 18.6159198,117.817409 Z M26.7395862,123 L26.7395862,108.182591 L28.6677336,108.182591 L28.6677336,110.223612 C29.4572665,108.702844 30.6415482,107.942471 32.2206142,107.942471 C33.4995271,107.942471 34.5060034,108.419372 35.2400733,109.373187 C35.9741432,110.327002 36.3411727,111.630974 36.3411727,113.285143 C36.3411727,115.086052 35.9252059,116.53843 35.09326,117.642321 C34.2613141,118.746212 33.1667508,119.298149 31.8095371,119.298149 C30.5501994,119.298149 29.502942,118.804574 28.6677336,117.817409 L28.6677336,123 L26.7395862,123 Z M28.6677336,116.456728 C29.6595436,117.363853 30.6056639,117.817409 31.506123,117.817409 C33.3592417,117.817409 34.2857872,116.373368 34.2857872,113.485243 C34.2857872,110.937289 33.4636412,109.663332 31.8193246,109.663332 C30.7426887,109.663332 29.6921689,110.260291 28.6677336,111.454227 L28.6677336,116.456728 Z M39.355738,119.048024 L39.355738,108.182591 L47.0879024,108.182591 L47.0879024,109.913457 L41.2838853,109.913457 L41.2838853,119.048024 L39.355738,119.048024 Z M53.4204472,119.298149 C51.9001068,119.298149 50.6864628,118.782897 49.7794786,117.752376 C48.8724945,116.721856 48.4190092,115.342847 48.4190092,113.615308 C48.4190092,111.867758 48.8741257,110.485414 49.7843724,109.468234 C50.6946191,108.451054 51.9294693,107.942471 53.48896,107.942471 C55.0484508,107.942471 56.283301,108.451054 57.1935476,109.468234 C58.1037943,110.485414 58.5589108,111.861089 58.5589108,113.595298 C58.5589108,115.369527 58.1021631,116.763543 57.1886539,117.777389 C56.2751446,118.791234 55.0190883,119.298149 53.4204472,119.298149 Z M53.4498098,117.817409 C55.4921554,117.817409 56.5133129,116.410052 56.5133129,113.595298 C56.5133129,110.813893 55.5052054,109.423212 53.48896,109.423212 C51.4792397,109.423212 50.4743947,110.820563 50.4743947,113.615308 C50.4743947,116.416722 51.4661898,117.817409 53.4498098,117.817409 Z M61.5734762,119.048024 L61.5734762,108.182591 L65.2731701,108.182591 C66.3954814,108.182591 67.2372023,108.379354 67.7983579,108.772886 C68.3595136,109.166419 68.6400872,109.756708 68.6400872,110.543772 C68.6400872,111.210775 68.470438,111.779387 68.1311346,112.249625 C67.7918312,112.719862 67.2828837,113.095046 66.6042768,113.375188 C67.4264351,113.648659 68.0430446,114.028845 68.4541238,114.515758 C68.8652029,115.00267 69.0707394,115.59963 69.0707394,116.306653 C69.0707394,117.167088 68.7673284,117.839084 68.1604973,118.322661 C67.5536661,118.806239 66.7184702,119.048024 65.6548845,119.048024 L61.5734762,119.048024 Z M63.491836,117.567284 L64.2944151,117.567284 C65.3841011,117.567284 66.1148975,117.468902 66.4868262,117.272136 C66.858755,117.07537 67.0447166,116.693516 67.0447166,116.126563 C67.0447166,115.51959 66.8016615,115.027682 66.3155441,114.650825 C65.8294267,114.273968 65.1916111,114.085543 64.4020781,114.085543 L63.491836,114.085543 L63.491836,117.567284 Z M63.491836,112.784892 L64.4608034,112.784892 C65.9289432,112.784892 66.6630021,112.174593 66.6630021,110.953977 C66.6630021,110.527095 66.4884592,110.20527 66.1393682,109.988494 C65.7902772,109.771718 65.269911,109.663332 64.578254,109.663332 L63.491836,109.663332 L63.491836,112.784892 Z M72.0950923,119.048024 L72.0950923,108.182591 L74.0232396,108.182591 L74.0232396,112.564782 L74.9530569,112.564782 C76.4146716,112.564782 77.5124975,112.828245 78.2465674,113.355178 C78.9806373,113.88211 79.3476668,114.672498 79.3476668,115.726363 C79.3476668,116.833589 78.9577999,117.663996 78.1780546,118.217609 C77.3983092,118.771222 76.2287087,119.048024 74.6692179,119.048024 L72.0950923,119.048024 Z M80.7864366,119.048024 L80.7864366,108.182591 L82.7243715,108.182591 L82.7243715,119.048024 L80.7864366,119.048024 Z M74.0232396,117.567284 L74.7964561,117.567284 C75.6251394,117.567284 76.2482739,117.41721 76.6658781,117.117059 C77.0834823,116.816907 77.2922813,116.363351 77.2922813,115.756378 C77.2922813,115.189425 77.0867448,114.762549 76.6756656,114.475738 C76.2645865,114.188926 75.647977,114.045523 74.8258187,114.045523 L74.0232396,114.045523 L74.0232396,117.567284 Z M86.5904537,119.048024 L86.5904537,108.182591 L88.4011504,108.182591 L88.4011504,116.406703 L93.3536506,108.182591 L95.2817979,108.182591 L95.2817979,119.048024 L93.4711012,119.048024 L93.4711012,110.823912 L88.5283885,119.048024 L86.5904537,119.048024 Z M87.5594211,103 L88.7632897,103 C88.8676908,103.580293 89.0911709,104.013839 89.4337369,104.30065 C89.7763029,104.587462 90.2379443,104.730865 90.8186752,104.730865 C91.3994061,104.730865 91.8610475,104.587462 92.2036135,104.30065 C92.5461795,104.013839 92.7696596,103.580293 92.8740607,103 L94.0779293,103 C93.9800533,103.973825 93.63423,104.75254 93.040449,105.336168 C92.446668,105.919796 91.7060842,106.211606 90.8186752,106.211606 C89.9312662,106.211606 89.1923136,105.919796 88.6017952,105.336168 C88.0112767,104.75254 87.6638222,103.973825 87.5594211,103 Z M103.493552,121.51926 L103.493552,117.477239 L104.46252,117.477239 C105.186802,116.376683 105.730006,115.124403 106.092147,113.72036 C106.454288,112.316318 106.635356,110.757221 106.635356,109.043022 L106.635356,108.182591 L113.457278,108.182591 L113.457278,117.477239 L115.385425,117.477239 L115.385425,121.51926 L113.457278,121.51926 L113.457278,119.048024 L105.4217,119.048024 L105.4217,121.51926 L103.493552,121.51926 Z M106.439605,117.477239 L111.519343,117.477239 L111.519343,109.663332 L108.318814,109.663332 L108.318814,109.853427 C108.318814,111.214114 108.162215,112.529759 107.849012,113.8004 C107.535809,115.071042 107.066011,116.296642 106.439605,117.477239 Z M122.324798,119.298149 C120.804458,119.298149 119.590814,118.782897 118.68383,117.752376 C117.776846,116.721856 117.32336,115.342847 117.32336,113.615308 C117.32336,111.867758 117.778477,110.485414 118.688723,109.468234 C119.59897,108.451054 120.83382,107.942471 122.393311,107.942471 C123.952802,107.942471 125.187652,108.451054 126.097899,109.468234 C127.008145,110.485414 127.463262,111.861089 127.463262,113.595298 C127.463262,115.369527 127.006514,116.763543 126.093005,117.777389 C125.179496,118.791234 123.923439,119.298149 122.324798,119.298149 Z M122.354161,117.817409 C124.396506,117.817409 125.417664,116.410052 125.417664,113.595298 C125.417664,110.813893 124.409556,109.423212 122.393311,109.423212 C120.383591,109.423212 119.378746,110.820563 119.378746,113.615308 C119.378746,116.416722 120.370541,117.817409 122.354161,117.817409 Z M130.477827,119.048024 L130.477827,108.182591 L132.58215,108.182591 L135.772892,116.676838 L135.792467,116.676838 L138.924483,108.182591 L141.165832,108.182591 L141.165832,119.048024 L139.227897,119.048024 L139.227897,110.793897 L139.208322,110.793897 L136.448233,118.307654 L134.588598,118.307654 L132.004685,111.504252 L131.98511,111.504252 L131.98511,119.048024 L130.477827,119.048024 Z M151.785323,109.113057 L152.940254,109.763382 L151.051257,113.275138 L152.940254,116.746873 L151.785323,117.437219 L149.495037,113.275138 L151.785323,109.113057 Z M155.230541,109.113057 L156.385472,109.763382 L154.51605,113.275138 L156.385472,116.746873 L155.230541,117.437219 L152.940254,113.275138 L155.230541,109.113057 Z M159.037898,119.048024 L159.037898,104.24062 L167.132202,104.24062 L167.132202,105.811406 L161.093283,105.811406 L161.093283,110.593797 L162.199276,110.593797 C164.08502,110.593797 165.416114,110.843919 166.192597,111.344172 C167.301858,112.064536 167.85648,113.12839 167.85648,114.535768 C167.85648,116.183267 167.226821,117.410535 165.967483,118.217609 C165.106174,118.771222 163.673944,119.048024 161.670749,119.048024 L159.037898,119.048024 Z M161.093283,117.507254 L161.817562,117.507254 C163.207401,117.507254 164.218771,117.282143 164.851702,116.831916 C165.484634,116.381689 165.801095,115.666338 165.801095,114.685843 C165.801095,113.838748 165.49279,113.20177 164.876171,112.774887 C164.259553,112.348005 163.334638,112.134567 162.101401,112.134567 L161.093283,112.134567 L161.093283,117.507254 Z M178.544485,118.697849 C177.252522,119.098051 176.14654,119.298149 175.226505,119.298149 C173.660489,119.298149 172.383227,118.766222 171.394679,117.702351 C170.406132,116.638481 169.911866,115.259472 169.911866,113.565283 C169.911866,111.917784 170.347407,110.567122 171.218504,109.513257 C172.0896,108.459391 173.203738,107.932466 174.560952,107.932466 C175.84639,107.932466 176.839816,108.399362 177.541261,109.333167 C178.242705,110.266971 178.593422,111.594289 178.593422,113.315158 L178.583635,113.925463 L171.879163,113.925463 C172.159741,116.506766 173.396222,117.797399 175.588645,117.797399 C176.391228,117.797399 177.376498,117.577291 178.544485,117.137069 L178.544485,118.697849 Z M171.967251,112.444722 L176.655488,112.444722 C176.655488,110.423702 175.918166,109.413207 174.443501,109.413207 C172.962311,109.413207 172.136903,110.423702 171.967251,112.444722 Z M181.921189,123 L181.921189,108.182591 L183.849337,108.182591 L183.849337,110.223612 C184.63887,108.702844 185.823151,107.942471 187.402217,107.942471 C188.68113,107.942471 189.687606,108.419372 190.421676,109.373187 C191.155746,110.327002 191.522776,111.630974 191.522776,113.285143 C191.522776,115.086052 191.106809,116.53843 190.274863,117.642321 C189.442917,118.746212 188.348354,119.298149 186.99114,119.298149 C185.731802,119.298149 184.684545,118.804574 183.849337,117.817409 L183.849337,123 L181.921189,123 Z M183.849337,116.456728 C184.841147,117.363853 185.787267,117.817409 186.687726,117.817409 C188.540845,117.817409 189.46739,116.373368 189.46739,113.485243 C189.46739,110.937289 188.645244,109.663332 187.000928,109.663332 C185.924292,109.663332 184.873772,110.260291 183.849337,111.454227 L183.849337,116.456728 Z M193.764125,123 L193.764125,121.269135 L194.038176,121.269135 C195.069136,121.269135 195.772202,121.137403 196.147393,120.873937 C196.522584,120.610471 196.873301,120.001839 197.199555,119.048024 L193.088784,108.182591 L195.163744,108.182591 L198.246823,116.346673 L198.266398,116.346673 L201.466926,108.182591 L203.287411,108.182591 L199.127702,118.797899 C198.409945,120.632159 197.755817,121.79106 197.165298,122.274637 C196.57478,122.758215 195.516104,123 193.989238,123 L193.764125,123 Z M208.709713,109.113057 L211,113.275138 L208.709713,117.437219 L207.554782,116.746873 L209.44378,113.275138 L207.554782,109.763382 L208.709713,109.113057 Z M205.264496,109.113057 L207.554782,113.275138 L205.264496,117.437219 L204.109565,116.746873 L205.978987,113.275138 L204.109565,109.763382 L205.264496,109.113057 Z" id="Торговыйдом«Беру»" fill="#808D97"></path>
        </g>
    </g>
</svg>