<?xml version="1.0" encoding="UTF-8"?>
<svg width="10px" height="10px" viewBox="0 0 10 10" version="1.1" xmlns="http://www.w3.org/2000/svg" xmlns:xlink="http://www.w3.org/1999/xlink">
    <!-- Generator: Sketch 55.1 (78136) - https://sketchapp.com -->
    <title>skype-logo</title>
    <desc>Created with Sketch.</desc>
    <g id="Page-2" stroke="none" stroke-width="1" fill="none" fill-rule="evenodd">
        <g id="Контакты" transform="translate(-746.000000, -1261.000000)" fill="#FFFFFF" fill-rule="nonzero">
            <g id="Group-5" transform="translate(729.000000, 835.000000)">
                <g id="skype-logo" transform="translate(17.000000, 426.000000)">
                    <path d="M9.56285383,5.71225058 C9.60009281,5.47663573 9.61969838,5.23559165 9.61969838,4.98955916 C9.61969838,2.43236659 7.54679814,0.359512761 4.98953596,0.359512761 C4.74415313,0.359512761 4.50241299,0.379721578 4.26700696,0.416542923 C3.84058005,0.152691415 3.33728538,0 2.79791183,0 C1.25269142,0 0,1.252529 0,2.79791183 C0,3.33716937 0.152784223,3.8400464 0.416519722,4.26733179 C0.380023202,4.50334107 0.359930394,4.74361949 0.359930394,4.98965197 C0.359930394,7.54703016 2.43278422,9.61925754 4.98944316,9.61925754 C5.2350348,9.61925754 5.47684455,9.60032483 5.71222738,9.56317865 C6.13909513,9.82651972 6.64197216,9.97962877 7.1812297,9.97962877 C8.72686775,9.97962877 9.97942002,8.72677494 9.97942002,7.18143852 C9.97953596,6.64197216 9.82684455,6.13921114 9.56285383,5.71225058 Z M7.18784223,7.09535963 C6.99197216,7.37733179 6.70424594,7.59767981 6.32828306,7.75612529 C5.95155452,7.9149884 5.5062877,7.99403712 4.99208817,7.99403712 C4.37580046,7.99403712 3.86554524,7.8861949 3.46278422,7.66842227 C3.17728538,7.5124826 2.94508121,7.30329466 2.76656613,7.04243619 C2.58767981,6.78136891 2.49698376,6.52570766 2.49698376,6.27642691 C2.49698376,6.12937355 2.55306265,6.00148492 2.66222738,5.89721578 C2.772529,5.79218097 2.91459397,5.73953596 3.08227378,5.73953596 C3.21962877,5.73953596 3.33761021,5.78090487 3.43366589,5.86287703 C3.52900232,5.94482599 3.60897912,6.06396752 3.67438515,6.22118329 C3.75278422,6.40331787 3.83793503,6.55556845 3.92853828,6.67705336 C4.01858469,6.79703016 4.14531323,6.89719258 4.30944316,6.97559165 C4.47176334,7.05419954 4.68779582,7.09350348 4.95812065,7.09350348 C5.32807425,7.09350348 5.62705336,7.01348028 5.85587007,6.85561485 C6.08584687,6.6963109 6.1963109,6.5024826 6.1963109,6.26828306 C6.1963109,6.08148492 6.13675174,5.93313225 6.01461717,5.817471 C5.89136891,5.70030162 5.73220418,5.61106729 5.53468677,5.54881671 C5.33640371,5.48591647 5.07018561,5.41921114 4.73656613,5.34893271 C4.28858469,5.25116009 3.91392111,5.13735499 3.61051044,5.00665893 C3.30670534,4.87547564 3.06475638,4.69614849 2.88542923,4.46962877 C2.70573086,4.24088167 2.61612529,3.95656613 2.61612529,3.61981439 C2.61612529,3.2987007 2.71071926,3.01153132 2.90009281,2.76160093 C3.08937355,2.51097448 3.36322506,2.31914153 3.72030162,2.18552204 C4.07612529,2.05194896 4.4950348,1.98512761 4.974942,1.98512761 C5.3587239,1.98512761 5.69069606,2.02953596 5.97169374,2.11788863 C6.25192575,2.20689095 6.48552204,2.32433875 6.67229698,2.47171694 C6.85788863,2.6187703 6.99445476,2.77387471 7.08095128,2.93663573 C7.16737819,3.09988399 7.21090487,3.25932715 7.21090487,3.41491879 C7.21090487,3.55958237 7.15482599,3.69078886 7.04554524,3.80577726 C6.9362877,3.92092807 6.79651972,3.97962877 6.63329466,3.97909513 C6.48614849,3.97909513 6.37071926,3.94515081 6.29067285,3.87329466 C6.21271462,3.8037819 6.13083527,3.69310905 6.04227378,3.53886311 C5.93032483,3.32364269 5.7962413,3.15596288 5.64032483,3.03603248 C5.48851508,2.91832947 5.23805104,2.85705336 4.88953596,2.85779582 C4.56707657,2.85779582 4.30907193,2.9236891 4.11433875,3.0525522 C3.91839907,3.18348028 3.82473318,3.33538283 3.82429234,3.51336427 C3.82461717,3.62489559 3.85668213,3.71893271 3.9212065,3.79935035 C3.98672854,3.88051044 4.07788863,3.95083527 4.195058,4.01011601 C4.31227378,4.07032483 4.43150812,4.11689095 4.55132251,4.15039443 C4.6725522,4.18475638 4.8736891,4.23443155 5.15327146,4.30020882 C5.50389791,4.37577726 5.82192575,4.46020882 6.10770302,4.55222738 C6.39292343,4.64470998 6.63633411,4.7562413 6.83742459,4.88911833 C7.04011601,5.02160093 7.19853828,5.19051044 7.31162413,5.39452436 C7.42552204,5.59886311 7.48225205,5.84844548 7.48225205,6.14213457 C7.48269142,6.49577726 7.38417633,6.81382831 7.18784223,7.09535963 Z" id="Skype"></path>
                </g>
            </g>
        </g>
    </g>
</svg>