<?xml version="1.0" encoding="UTF-8"?>
<svg width="10px" height="7px" viewBox="0 0 10 7" version="1.1" xmlns="http://www.w3.org/2000/svg" xmlns:xlink="http://www.w3.org/1999/xlink">
    <!-- Generator: Sketch 55.1 (78136) - https://sketchapp.com -->
    <title>close-envelope</title>
    <desc>Created with Sketch.</desc>
    <g id="Page-2" stroke="none" stroke-width="1" fill="none" fill-rule="evenodd">
        <g id="Контакты" transform="translate(-746.000000, -1229.000000)" fill="#FFFFFF" fill-rule="nonzero">
            <g id="Group-5" transform="translate(729.000000, 835.000000)">
                <g id="close-envelope" transform="translate(17.000000, 394.000000)">
                    <path d="M5,4.9 L3.76285714,3.8388 L0.225714286,6.8103 C0.354285714,6.9272 0.527857143,7 0.719285714,7 L9.28071429,7 C9.47142857,7 9.64428571,6.9272 9.77214286,6.8103 L6.23714286,3.8388 L5,4.9 Z" id="Path"></path>
                    <path d="M9.77428571,0.1897 C9.64571429,0.0721 9.47285714,0 9.28071429,0 L0.719285714,0 C0.528571429,0 0.355714286,0.0728 0.227142857,0.1911 L5,4.2 L9.77428571,0.1897 Z" id="Path"></path>
                    <polygon id="Path" points="0 0.6146 0 6.4302 3.45214286 3.5553"></polygon>
                    <polygon id="Path" points="6.54785714 3.5553 10 6.4302 10 0.6125"></polygon>
                </g>
            </g>
        </g>
    </g>
</svg>