<?xml version="1.0" encoding="UTF-8"?>
<svg width="10px" height="10px" viewBox="0 0 10 10" version="1.1" xmlns="http://www.w3.org/2000/svg" xmlns:xlink="http://www.w3.org/1999/xlink">
    <!-- Generator: Sketch 55.1 (78136) - https://sketchapp.com -->
    <title>icq-flower-logo</title>
    <desc>Created with Sketch.</desc>
    <g id="Page-2" stroke="none" stroke-width="1" fill="none" fill-rule="evenodd">
        <g id="Контакты" transform="translate(-746.000000, -1295.000000)" fill="#FFFFFF" fill-rule="nonzero">
            <g id="Group-5" transform="translate(729.000000, 835.000000)">
                <g id="icq-flower-logo" transform="translate(17.000000, 460.000000)">
                    <path d="M9.80415974,5.48914397 L9.73227085,5.37603285 C9.61727085,5.20692174 9.50282641,5.03781063 9.33004863,4.92503285 C9.18638196,4.82614397 9.01382641,4.75592174 8.85627085,4.68525508 C9.30138196,4.47369952 9.60593752,4.17781063 9.74982641,3.79714397 C9.85027085,3.48669952 9.66660419,3.2334773 9.66660419,2.97958841 L9.66660419,2.9514773 C9.66660419,2.66903285 9.27593752,2.48603285 8.91693752,2.38725508 C8.70082641,2.34503285 8.46260419,2.34503285 8.24727085,2.35869952 L7.77538196,2.45758841 L7.93538196,2.10536619 C8.0787153,1.65392174 8.0367153,1.21714397 7.79249308,0.807921743 L7.74960419,0.737921743 C7.53393752,0.385032854 7.21804863,0.173699521 6.78682641,0.0610328541 C6.3417153,-0.0519671459 5.9627153,-0.00974492367 5.56049308,0.201810632 C5.15760419,0.413810632 4.7777153,0.738143965 4.7777153,1.16058841 L4.7777153,1.18869952 L4.72693752,1.28758841 L4.65115974,1.18869952 L4.49815974,0.935366187 C4.26815974,0.582699521 3.97649308,0.371143965 3.61704863,0.272255076 C3.30082641,0.201921743 3.04060419,0.230143965 2.76749308,0.371143965 C2.46615974,0.554143965 2.29215974,0.836921743 2.22015974,1.23125508 C2.14815974,1.64014397 2.21993752,2.03514397 2.43549308,2.4294773 L2.53538196,2.57092174 L2.1907153,2.45758841 C1.75949308,2.35869952 1.35738196,2.41536619 0.955270854,2.62681063 C0.538270854,2.83814397 0.279826409,3.1344773 0.107159743,3.54325508 C-0.0508402573,3.93803285 -0.0361735907,4.31825508 0.164826409,4.67114397 C0.251159743,4.82625508 0.380381965,4.95314397 0.495048632,5.03781063 C0.667715298,5.20681063 0.883270854,5.30558841 1.14182641,5.34781063 L1.24204863,5.37592174 L1.02693752,5.55969952 C0.825493076,5.72914397 0.71093752,5.94036619 0.639048632,6.15169952 C0.567381965,6.40536619 0.596048632,6.65925508 0.739604187,6.89936619 C0.811604187,7.01192174 0.883270854,7.10981063 0.998270854,7.18114397 C1.11327085,7.27925508 1.25682641,7.35003285 1.42904863,7.36425508 C1.74527085,7.43503285 2.07582641,7.43503285 2.43460419,7.32169952 L2.1757153,7.74492174 L2.10449308,7.92814397 C1.96060419,8.37858841 2.00338196,8.7734773 2.21904863,9.18236619 C2.3197153,9.33814397 2.43460419,9.47892174 2.54960419,9.60569952 C2.72193752,9.76081063 2.93704863,9.85958841 3.19615974,9.93036619 C3.62638196,10.0428106 4.05760419,10.028144 4.4747153,9.81703285 C4.87693752,9.60569952 5.13504863,9.26681063 5.2647153,8.84436619 L5.27860419,8.76014397 C5.55182641,9.0554773 5.81038196,9.25314397 6.09804863,9.32369952 C6.38515974,9.40803285 6.67238196,9.3944773 6.93104863,9.22481063 C7.17527085,9.08358841 7.34760419,8.84414397 7.43360419,8.54781063 C7.50538196,8.23781063 7.50538196,7.92792174 7.43360419,7.57614397 C7.57693752,7.67403285 7.72104863,7.74469952 7.89315974,7.78658841 C8.35260419,7.92792174 8.75527085,7.9134773 9.15738196,7.70214397 C9.54527085,7.49103285 9.80382641,7.15192174 9.93293752,6.71514397 C10.0484931,6.29236619 10.0198264,5.88369952 9.80415974,5.48914397 Z M7.72127085,3.13458841 L7.89338196,3.06381063 C8.15249308,2.9514773 8.39615974,2.92292174 8.65527085,2.9514773 C8.89860419,2.97958841 9.07182641,3.09192174 9.15760419,3.2614773 L9.21504863,3.4444773 L9.18638196,3.58581063 C9.08604863,3.83958841 8.87015974,4.03692174 8.51138196,4.19192174 C8.3677153,4.26203285 8.20993752,4.29058841 8.03760419,4.31825508 L6.27049308,4.53036619 L6.24138196,4.4314773 L6.2127153,4.38892174 L6.27049308,4.31814397 L7.72127085,3.13458841 Z M5.2787153,1.35814397 C5.35049308,1.07625508 5.55193752,0.864810632 5.81049308,0.723699521 C6.06915974,0.582699521 6.35638196,0.554255076 6.62915974,0.653032854 C6.93127085,0.723699521 7.14627085,0.878699521 7.27604863,1.11836619 C7.34782641,1.2594773 7.39049308,1.42869952 7.39049308,1.61192174 L7.3477153,1.92181063 C7.29038196,2.07692174 7.21838196,2.21814397 7.13238196,2.34514397 L5.83949308,3.89581063 C5.71038196,3.79714397 5.5667153,3.7264773 5.42260419,3.65614397 L5.2787153,2.06314397 L5.26482641,1.49892174 L5.2787153,1.35814397 Z M2.82304863,1.40025508 C2.83682641,1.14658841 2.93704863,0.977366187 3.10982641,0.878810632 C3.19615974,0.808143965 3.32538196,0.808143965 3.44004863,0.864810632 C3.69893752,0.935477299 3.91460419,1.1184773 4.08638196,1.47103285 C4.15838196,1.61214397 4.23004863,1.75303285 4.25915974,1.92203285 L4.54627085,3.58614397 L4.33115974,3.6564773 L3.05215974,2.28858841 L2.98049308,2.14769952 C2.86549308,1.89369952 2.79393752,1.65414397 2.82304863,1.40025508 Z M0.710715298,4.38903285 C0.59593752,4.17792174 0.59593752,3.96658841 0.682270854,3.75503285 C0.782715298,3.48669952 0.969381965,3.27558841 1.24182641,3.16269952 C1.50093752,3.02158841 1.75904863,2.97969952 2.04660419,3.04969952 L2.43449308,3.20481063 L3.6987153,4.10714397 C3.58382641,4.2484773 3.51182641,4.38892174 3.46849308,4.53036619 L1.39993752,4.78414397 L1.25660419,4.75603285 C0.998048632,4.7134773 0.825493076,4.60125508 0.710715298,4.38903285 Z M4.7777153,8.5484773 L4.72693752,8.68969952 C4.62627085,8.94336619 4.43560419,9.15492174 4.17715974,9.26703285 C3.91838196,9.40836619 3.6357153,9.4364773 3.37782641,9.36658841 C3.0897153,9.29581063 2.87004863,9.12669952 2.75504863,8.90092174 C2.68360419,8.7604773 2.62427085,8.59092174 2.62427085,8.4214773 L2.69393752,8.09781063 C2.72304863,7.95658841 2.79482641,7.81525508 2.90960419,7.70269952 L4.1157153,6.29225508 C4.25938196,6.36314397 4.43927085,6.43358841 4.59760419,6.44803285 C4.62593752,6.92703285 4.7777153,7.43536619 4.7777153,7.9844773 L4.7777153,8.5484773 Z M4.22993752,5.72936619 C4.04327085,5.55992174 3.94315974,5.31969952 3.94315974,5.06614397 C3.94315974,4.81225508 4.04327085,4.60103285 4.22993752,4.40336619 C4.40260419,4.2484773 4.63249308,4.14969952 4.90538196,4.14969952 C5.16404863,4.14969952 5.40827085,4.24858841 5.5667153,4.40336619 C5.76704863,4.60103285 5.85382641,4.81225508 5.85382641,5.06614397 C5.85382641,5.31969952 5.76704863,5.55969952 5.5667153,5.72936619 C5.37960419,5.9124773 5.16404863,6.01047768 4.90538196,6.01047768 C4.63249308,6.01069952 4.4027153,5.91269952 4.22993752,5.72936619 Z M6.88827085,8.19603285 C6.85949308,8.4504773 6.77327085,8.63358841 6.60038196,8.70425508 C6.50038196,8.77403285 6.38527085,8.77403285 6.27027085,8.76069952 C5.99738196,8.68981063 5.78182641,8.47869952 5.62404863,8.13969952 L5.45115974,7.67458841 L5.23604863,6.44814397 L5.4797153,6.36303285 L5.66693752,6.26514397 L6.27038196,6.8704773 L6.64393752,7.32192174 L6.71560419,7.46258841 C6.84482641,7.70269952 6.91693752,7.9284773 6.88827085,8.19603285 Z M9.35893752,6.54625508 C9.28704863,6.82892174 9.1147153,7.04014397 8.87015974,7.1524773 C8.61204863,7.29381063 8.35293752,7.32203285 8.06615974,7.22336619 C7.89338196,7.1814773 7.77860419,7.10992174 7.67827085,6.99781063 L6.16960419,5.77125508 L6.27027085,5.55992174 L6.3137153,5.39036619 L7.9367153,5.24914397 L8.51115974,5.2354773 L8.65527085,5.24914397 C8.87015974,5.31992174 9.07182641,5.44681063 9.18615974,5.65803285 C9.32982641,5.81381063 9.40182641,6.02514397 9.40182641,6.26536619 L9.35893752,6.54625508 Z" id="ICQ"></path>
                </g>
            </g>
        </g>
    </g>
</svg>