<?xml version="1.0" encoding="UTF-8"?>
<svg width="11px" height="12px" viewBox="0 0 11 12" version="1.1" xmlns="http://www.w3.org/2000/svg" xmlns:xlink="http://www.w3.org/1999/xlink">
    <!-- Generator: Sketch 55.1 (78136) - https://sketchapp.com -->
    <title>call</title>
    <desc>Created with Sketch.</desc>
    <g id="Page-2" stroke="none" stroke-width="1" fill="none" fill-rule="evenodd">
        <g id="Контакты" transform="translate(-746.000000, -1192.000000)" fill="#FFFFFF" fill-rule="nonzero">
            <g id="Group-5" transform="translate(729.000000, 835.000000)">
                <g id="call" transform="translate(22.500000, 363.000000) rotate(13.000000) translate(-22.500000, -363.000000) translate(17.000000, 358.000000)">
                    <path d="M7.44761333,5.21617041 C7.42644052,5.24617503 7.42644052,5.27617966 7.41585412,5.31618583 C7.40526772,5.44620587 7.51113174,5.56622438 7.64875496,5.57622592 C7.78637819,5.58622746 7.91341501,5.48621204 7.92400141,5.35619199 C7.92400141,5.32618737 7.92400141,5.29618274 7.93458781,5.24617503 C7.93458781,5.19616732 7.93458781,5.1661627 7.93458781,5.13615807 C7.93458781,4.84611335 7.8816558,4.56607018 7.78637819,4.29602854 C7.65934136,3.94597457 7.43702692,3.63592677 7.17236688,3.37588668 C6.84418842,3.06583887 6.44190514,2.84580495 5.98668986,2.72578645 C5.77496182,2.67577874 5.54206098,2.64577411 5.31974654,2.64577411 C5.24564173,2.64577411 5.17153691,2.64577411 5.0868457,2.65577565 C5.01274089,2.66577719 4.93863607,2.67577874 4.86453126,2.68578028 C4.72690803,2.70578336 4.63163042,2.83580341 4.66338962,2.95582191 C4.68456243,3.08584196 4.82218565,3.17585584 4.94922247,3.14585121 C5.01274089,3.13584967 5.06567289,3.12584813 5.12919131,3.12584813 C5.13977771,3.12584813 5.15036411,3.12584813 5.16095051,3.12584813 C5.21388252,3.12584813 5.26681453,3.11584658 5.31974654,3.11584658 C5.90199865,3.11584658 6.44190514,3.33588051 6.82301561,3.70593756 C7.20412608,4.06599307 7.43702692,4.55606863 7.44761333,5.10615344 L7.44761333,5.12615653 C7.44761333,5.1661627 7.44761333,5.19616732 7.44761333,5.21617041 Z" id="Path"></path>
                    <path d="M8.80946232,5.32496302 C8.7991551,5.45060608 8.9022273,5.56658428 9.03622117,5.57624913 C9.17021504,5.58591398 9.29390169,5.48926548 9.30420891,5.36362242 C9.31451613,5.25730906 9.31451613,5.15099571 9.31451613,5.04468235 C9.31451613,4.83205564 9.29390169,4.62909378 9.26298003,4.42613192 C9.12898616,3.65294387 8.72700455,2.95707463 8.16010742,2.42550785 C7.51075252,1.81662226 6.64494599,1.42036339 5.68637447,1.35270943 C5.58330227,1.34304458 5.46992284,1.34304458 5.36685063,1.34304458 C5.25347121,1.34304458 5.14009178,1.34304458 5.02671235,1.35270943 C4.91333293,1.36237428 4.7999535,1.37203913 4.68657407,1.39136883 C4.55258021,1.41069853 4.45981522,1.53634159 4.49073688,1.6523198 C4.51135132,1.77796286 4.64534519,1.86494651 4.76903184,1.83595196 C4.84118238,1.82628711 4.90302571,1.81662226 4.97517625,1.80695741 C5.00609791,1.80695741 5.03701958,1.79729256 5.06794124,1.79729256 C5.17101344,1.78762771 5.27408565,1.78762771 5.36685063,1.78762771 C5.71729614,1.78762771 6.0471272,1.83595196 6.36665103,1.92293562 C6.92324095,2.07757322 7.41798754,2.35785389 7.81996914,2.73478306 C8.1498002,3.04405828 8.41778794,3.42098745 8.59301069,3.82691118 C8.747619,4.1941755 8.84038398,4.60009923 8.84038398,5.02535265 C8.84038398,5.0543472 8.84038398,5.0930066 8.84038398,5.12200116 C8.81976954,5.19931996 8.80946232,5.25730906 8.80946232,5.32496302 Z" id="Path"></path>
                    <path d="M9.11445535,1.52821946 C8.12696217,0.604357246 6.77565571,0.0403150522 5.27882394,0.0403150522 C5.12290397,0.0403150522 4.96698399,0.0500399176 4.81106402,0.059764783 C4.65514404,0.0694896484 4.49922406,0.0889393792 4.34330409,0.118113975 C4.20817344,0.137563706 4.11462146,0.263986957 4.14580545,0.380685342 C4.16659478,0.507108592 4.30172543,0.594632381 4.42646141,0.565457785 C4.49922406,0.555732919 4.56159205,0.546008054 4.63435471,0.536283188 C4.70711736,0.526558323 4.77988002,0.516833458 4.85264268,0.516833458 C4.99816799,0.507108592 5.13329863,0.497383727 5.27882394,0.497383727 C6.6301304,0.497383727 7.85670088,1.01280159 8.75064208,1.83941515 C9.63418861,2.66602871 10.1851059,3.81356283 10.1851059,5.0875202 C10.1851059,5.15559426 10.1851059,5.23339318 10.1851059,5.30146724 C10.1851059,5.35981644 10.1747112,5.41816563 10.1747112,5.48623969 C10.1643165,5.61266294 10.2682632,5.72936132 10.4033938,5.73908619 C10.5385245,5.74881105 10.6632604,5.6515624 10.6736551,5.52513915 C10.6840498,5.37926617 10.6944444,5.23339318 10.6944444,5.09724507 C10.6944444,3.70658931 10.0915539,2.44235681 9.11445535,1.52821946 Z" id="Path"></path>
                    <path d="M10.2746479,7.42129301 L8.44134698,6.49464488 C7.83024667,6.18251078 7.8095314,6.38734878 7.16735819,7.03112538 C7.01199371,7.18719243 6.72198,7.59686844 6.38017813,7.51883492 C5.66550149,7.35301367 4.32936691,6.3678404 3.89434635,5.91914763 C3.6871937,5.70455543 2.79643732,4.6803654 2.78607968,4.34872291 C2.76536442,3.84150499 3.94613451,3.58789603 3.56290212,2.62223114 L2.74464916,0.895739372 C1.97818436,-0.762473062 -0.165845552,1.89066683 0.0102341993,3.12944906 C0.465970025,6.18251078 6.15231022,11.1181313 9.32174573,9.48918145 C10.0260647,9.1185222 10.9789669,7.82121483 10.2746479,7.42129301 Z" id="Path"></path>
                </g>
            </g>
        </g>
    </g>
</svg>