<!DOCTYPE svg PUBLIC "-//W3C//DTD SVG 20010904//EN" "http://www.w3.org/TR/2001/REC-SVG-20010904/DTD/svg10.dtd">
<svg version="1.0" xmlns="http://www.w3.org/2000/svg" width="1600px" height="1600px" viewBox="0 0 16000 16000" preserveAspectRatio="xMidYMid meet">
<g id="layer101" fill="#335599" stroke="none">
 <path d="M3630 14070 l0 -1070 -27 0 c-16 0 -98 -8 -183 -19 -85 -11 -231 -29 -325 -41 -93 -11 -246 -29 -340 -40 -167 -20 -351 -42 -633 -76 l-142 -17 2 -3466 3 -3466 140 -18 c139 -17 312 -38 640 -77 94 -11 247 -30 340 -41 94 -11 238 -29 320 -40 83 -11 162 -19 178 -19 l27 0 0 -2455 0 -2455 3873 0 3872 0 1583 1583 1582 1582 0 5603 0 5602 -5455 0 -5455 0 0 -1070z"/>
 </g>
<g id="layer102" fill="#999999" stroke="none">
 <path d="M3630 14069 l0 -1071 77 7 c43 4 87 9 98 10 11 2 99 13 195 25 96 11 229 27 295 35 183 22 492 59 885 105 195 22 405 47 465 56 61 8 207 26 325 39 470 55 644 76 1000 120 69 8 222 26 340 40 118 14 269 32 335 40 67 8 124 15 128 15 4 0 7 -1867 7 -4150 0 -2282 -3 -4150 -7 -4150 -4 0 -61 7 -128 15 -66 8 -273 33 -460 55 -187 22 -394 47 -460 55 -66 8 -214 26 -330 40 -115 13 -343 41 -505 61 -162 20 -315 38 -340 40 -25 3 -99 11 -165 19 -66 8 -235 28 -375 45 -140 16 -291 34 -335 40 -44 5 -177 21 -295 35 -225 27 -524 63 -575 70 -16 2 -63 7 -102 11 l-73 7 0 -2457 0 -2456 3873 0 3872 0 1583 1583 1582 1582 0 5603 0 5602 -5455 0 -5455 0 0 -1071z"/>
 <path d="M3976 10703 c-5 -17 -50 -254 -96 -503 -11 -58 -38 -202 -60 -320 -22 -118 -49 -262 -60 -320 -11 -58 -37 -199 -59 -315 -22 -115 -69 -370 -106 -565 -110 -587 -126 -674 -132 -697 l-5 -23 204 0 204 0 33 143 c18 78 43 189 57 247 13 58 60 265 104 460 44 195 91 402 105 460 13 58 47 210 76 338 29 128 56 227 60 220 3 -7 82 -430 174 -940 l168 -928 261 0 261 0 43 193 c24 105 54 239 67 297 14 58 61 265 105 460 44 195 91 402 105 460 13 58 43 190 67 294 l43 190 11 -55 c6 -30 21 -110 33 -179 12 -69 31 -170 41 -225 10 -55 28 -154 40 -220 27 -150 56 -310 80 -440 10 -55 28 -154 40 -220 32 -178 56 -306 80 -437 l23 -118 229 0 c214 0 229 1 224 18 -3 9 -10 46 -16 82 -6 36 -18 99 -25 140 -33 174 -97 513 -115 610 -11 58 -38 202 -60 320 -22 118 -49 262 -60 320 -11 58 -38 202 -60 320 -22 118 -47 249 -55 290 -7 41 -37 201 -65 355 -29 154 -54 286 -56 293 -3 9 -64 12 -263 12 l-259 0 -31 -132 c-17 -73 -49 -214 -71 -313 -22 -99 -49 -218 -60 -265 -23 -102 -112 -491 -201 -885 -16 -71 -37 -163 -46 -202 -9 -40 -20 -73 -24 -73 -4 0 -10 15 -14 33 -4 17 -17 79 -31 137 -13 58 -60 265 -104 460 -44 195 -89 393 -100 440 -41 175 -180 789 -180 795 0 3 -117 5 -259 5 -239 0 -260 -1 -265 -17z"/>
 </g>
<g id="layer103" fill="#ffffff" stroke="none">
 <path d="M3810 13990 c0 -898 1 -970 17 -970 15 0 89 9 468 55 66 8 215 26 330 40 530 62 890 107 894 111 2 2 -109 4 -247 4 l-252 0 0 260 0 260 4105 0 4105 0 0 -260 0 -260 -2722 -2 -2723 -3 0 -425 0 -425 2723 -3 2722 -2 0 -260 0 -260 -2722 -2 -2723 -3 0 -430 0 -430 2723 -3 2722 -2 0 -260 0 -260 -2725 0 -2725 0 2 -427 3 -428 2723 -3 2722 -2 0 -260 0 -260 -2722 -2 -2723 -3 0 -425 0 -425 2723 -3 2722 -2 0 -260 0 -260 -2722 -2 -2723 -3 0 -430 0 -430 2723 -3 2722 -2 0 -260 0 -260 -2725 0 -2725 0 2 -427 3 -428 2723 -3 2722 -2 0 -260 0 -260 -4105 0 -4105 0 0 260 0 260 247 0 c135 0 244 2 242 4 -5 5 -176 28 -499 66 -140 16 -291 34 -335 40 -44 5 -177 21 -295 35 -118 14 -286 34 -374 45 -87 11 -167 20 -177 20 -19 0 -19 -50 -19 -2355 l0 -2355 3715 0 3715 0 0 605 0 605 -3110 0 -3110 0 0 260 0 260 3110 0 3110 0 0 435 0 435 -3110 0 -3110 0 0 255 0 255 4668 2 4667 3 3 5448 2 5447 -5275 0 -5275 0 0 -970z"/>
 <path d="M3976 10703 c-5 -17 -50 -254 -96 -503 -11 -58 -38 -202 -60 -320 -22 -118 -49 -262 -60 -320 -11 -58 -37 -199 -59 -315 -22 -115 -69 -370 -106 -565 -110 -587 -126 -674 -132 -697 l-5 -23 204 0 204 0 33 143 c18 78 43 189 57 247 13 58 60 265 104 460 44 195 91 402 105 460 13 58 47 210 76 338 29 128 56 227 60 220 3 -7 82 -430 174 -940 l168 -928 261 0 261 0 43 193 c24 105 54 239 67 297 14 58 61 265 105 460 44 195 91 402 105 460 13 58 43 190 67 294 l43 190 11 -55 c6 -30 21 -110 33 -179 12 -69 31 -170 41 -225 10 -55 28 -154 40 -220 27 -150 56 -310 80 -440 10 -55 28 -154 40 -220 32 -178 56 -306 80 -437 l23 -118 229 0 c214 0 229 1 224 18 -3 9 -10 46 -16 82 -6 36 -18 99 -25 140 -33 174 -97 513 -115 610 -11 58 -38 202 -60 320 -22 118 -49 262 -60 320 -11 58 -38 202 -60 320 -22 118 -47 249 -55 290 -7 41 -37 201 -65 355 -29 154 -54 286 -56 293 -3 9 -64 12 -263 12 l-259 0 -31 -132 c-17 -73 -49 -214 -71 -313 -22 -99 -49 -218 -60 -265 -23 -102 -112 -491 -201 -885 -16 -71 -37 -163 -46 -202 -9 -40 -20 -73 -24 -73 -4 0 -10 15 -14 33 -4 17 -17 79 -31 137 -13 58 -60 265 -104 460 -44 195 -89 393 -100 440 -41 175 -180 789 -180 795 0 3 -117 5 -259 5 -239 0 -260 -1 -265 -17z"/>
 <path d="M11420 2483 l0 -1408 1405 1405 c773 773 1405 1406 1405 1407 0 2 -632 3 -1405 3 l-1405 0 0 -1407z"/>
 </g>

</svg>